<svg width="32" height="32" viewBox="0 0 32 32" fill="none" xmlns="http://www.w3.org/2000/svg">
<path d="M27.661 4.43802C27.1403 3.91731 26.296 3.91731 25.7754 4.43802L16.0495 14.1639L6.32369 4.43802C5.803 3.91731 4.95877 3.91731 4.43808 4.43802C3.91737 4.95871 3.91737 5.80294 4.43808 6.32363L14.1639 16.0495L4.4381 25.7752C3.9174 26.296 3.9174 27.1401 4.4381 27.6609C4.9588 28.1816 5.80302 28.1816 6.32372 27.6609L16.0495 17.9351L25.7754 27.6609C26.296 28.1816 27.1403 28.1816 27.661 27.6609C28.1816 27.1401 28.1816 26.296 27.661 25.7753L17.9351 16.0495L27.661 6.32363C28.1816 5.80294 28.1816 4.95871 27.661 4.43802Z" fill="#D228B6"/>
</svg>
