<svg width="32" height="32" viewBox="0 0 32 32" fill="none" xmlns="http://www.w3.org/2000/svg">
<path d="M26.5335 3.07625C26.3189 2.53013 25.5488 2.53013 25.3343 3.07625L24.7604 4.53662C24.6949 4.70335 24.5635 4.83534 24.3973 4.9011L22.9423 5.47706C22.3981 5.69245 22.3981 6.46533 22.9423 6.68071L24.3973 7.25669C24.5635 7.32245 24.6949 7.45442 24.7604 7.62115L25.3343 9.08153C25.5488 9.62765 26.3189 9.62765 26.5335 9.08154L27.1073 7.62115C27.1728 7.45442 27.3043 7.32245 27.4704 7.25669L28.9255 6.68071C29.4696 6.46533 29.4696 5.69245 28.9255 5.47706L27.4704 4.9011C27.3043 4.83534 27.1728 4.70335 27.1073 4.53662L26.5335 3.07625Z" fill="#D72DBB"/>
<path d="M21.377 10.8396C21.1623 10.2935 20.3923 10.2935 20.1776 10.8396L19.9684 11.372C19.903 11.5388 19.7715 11.6707 19.6054 11.7365L19.0748 11.9465C18.5307 12.1619 18.5307 12.9348 19.0748 13.1502L19.6054 13.3601C19.7715 13.4259 19.903 13.5579 19.9684 13.7247L20.1776 14.2571C20.3923 14.8032 21.1623 14.8032 21.377 14.2571L21.5862 13.7247C21.6516 13.5579 21.7831 13.4259 21.9492 13.3601L22.4798 13.1502C23.0239 12.9348 23.0239 12.1619 22.4798 11.9465L21.9492 11.7365C21.7831 11.6707 21.6516 11.5388 21.5862 11.372L21.377 10.8396Z" fill="#D72DBB"/>
<path d="M16.0001 29.3333C23.3638 29.3333 29.3334 23.3637 29.3334 16C29.3334 15.3831 28.4087 15.2811 28.0897 15.8091C26.5719 18.3208 23.8154 20 20.6667 20C15.8802 20 12.0001 16.1199 12.0001 11.3333C12.0001 8.18459 13.6793 5.42806 16.191 3.91034C16.719 3.59128 16.617 2.66666 16.0001 2.66666C8.63628 2.66666 2.66675 8.63619 2.66675 16C2.66675 23.3637 8.63628 29.3333 16.0001 29.3333Z" fill="#D72DBB"/>
</svg>
