<svg width="32" height="32" viewBox="0 0 32 32" fill="none" xmlns="http://www.w3.org/2000/svg">
<path d="M22.6666 16C22.6666 19.6819 19.6818 22.6667 15.9999 22.6667C12.318 22.6667 9.33325 19.6819 9.33325 16C9.33325 12.3181 12.318 9.33334 15.9999 9.33334C19.6818 9.33334 22.6666 12.3181 22.6666 16Z" fill="#D72DBB"/>
<path fill-rule="evenodd" clip-rule="evenodd" d="M16.0001 1.66666C16.5523 1.66666 17.0001 2.11438 17.0001 2.66666V5.33332C17.0001 5.8856 16.5523 6.33332 16.0001 6.33332C15.4478 6.33332 15.0001 5.8856 15.0001 5.33332V2.66666C15.0001 2.11438 15.4478 1.66666 16.0001 1.66666ZM4.89161 4.95478C5.26428 4.54718 5.89681 4.51886 6.30441 4.89152L9.26709 7.60031C9.67469 7.97298 9.70301 8.6055 9.33035 9.0131C8.95768 9.4207 8.32515 9.44902 7.91755 9.07635L4.95487 6.36758C4.54727 5.99491 4.51895 5.36238 4.89161 4.95478ZM27.1086 4.95478C27.4813 5.36238 27.4529 5.99491 27.0453 6.36758L24.0826 9.07635C23.675 9.44902 23.0425 9.4207 22.6698 9.0131C22.2971 8.6055 22.3254 7.97298 22.733 7.60031L25.6958 4.89152C26.1034 4.51886 26.7358 4.54718 27.1086 4.95478ZM1.66675 16C1.66675 15.4477 2.11447 15 2.66675 15H5.33341C5.88569 15 6.33341 15.4477 6.33341 16C6.33341 16.5523 5.88569 17 5.33341 17H2.66675C2.11447 17 1.66675 16.5523 1.66675 16ZM25.6667 16C25.6667 15.4477 26.1145 15 26.6667 15H29.3334C29.8857 15 30.3334 15.4477 30.3334 16C30.3334 16.5523 29.8857 17 29.3334 17H26.6667C26.1145 17 25.6667 16.5523 25.6667 16ZM22.7007 22.7003C23.0913 22.3097 23.7245 22.3097 24.115 22.7003L27.0777 25.6633C27.4682 26.0539 27.4681 26.6871 27.0775 27.0776C26.687 27.4681 26.0538 27.468 25.6634 27.0775L22.7007 24.1144C22.3102 23.7239 22.3102 23.0908 22.7007 22.7003ZM9.29964 22.7004C9.69016 23.0909 9.69016 23.7241 9.29964 24.1147L6.33667 27.0776C5.94615 27.4681 5.31299 27.4681 4.92245 27.0776C4.53193 26.6871 4.53193 26.0539 4.92245 25.6635L7.88543 22.7004C8.27595 22.3099 8.90911 22.3099 9.29964 22.7004ZM16.0001 25.6667C16.5523 25.6667 17.0001 26.1144 17.0001 26.6667V29.3333C17.0001 29.8856 16.5523 30.3333 16.0001 30.3333C15.4478 30.3333 15.0001 29.8856 15.0001 29.3333V26.6667C15.0001 26.1144 15.4478 25.6667 16.0001 25.6667Z" fill="#D72DBB"/>
</svg>
